<svg width="24" height="24" viewBox="0 0 24 24">
<path d="M9.40625 16.4375C9.40625 16.375 9.34375 16.3125 9.25 16.3125C9.15625 16.3125 9.09375 16.375 9.09375 16.4375C9.09375 16.5 9.15625 16.5625 9.25 16.5312C9.34375 16.5312 9.40625 16.5 9.40625 16.4375ZM8.4375 16.2812C8.4375 16.3438 8.5 16.4375 8.59375 16.4375C8.65625 16.4688 8.75 16.4375 8.78125 16.375C8.78125 16.3125 8.75 16.25 8.65625 16.2188C8.5625 16.1875 8.46875 16.2188 8.4375 16.2812ZM9.84375 16.25C9.75 16.25 9.6875 16.3125 9.6875 16.4062C9.6875 16.4688 9.78125 16.5 9.875 16.4688C9.96875 16.4375 10.0312 16.4062 10 16.3438C10 16.2812 9.90625 16.2188 9.84375 16.25ZM11.875 4.25C7.5625 4.25 4.25 7.5625 4.25 11.875C4.25 15.3438 6.40625 18.3125 9.53125 19.375C9.9375 19.4375 10.0625 19.1875 10.0625 19C10.0625 18.7812 10.0625 17.7188 10.0625 17.0625C10.0625 17.0625 7.875 17.5312 7.40625 16.125C7.40625 16.125 7.0625 15.2188 6.5625 15C6.5625 15 5.84375 14.5 6.59375 14.5C6.59375 14.5 7.375 14.5625 7.8125 15.3125C8.5 16.5312 9.625 16.1875 10.0938 15.9688C10.1562 15.4688 10.3438 15.125 10.5938 14.9062C8.84375 14.7188 7.0625 14.4688 7.0625 11.4688C7.0625 10.5938 7.3125 10.1875 7.8125 9.625C7.71875 9.40625 7.46875 8.59375 7.90625 7.5C8.53125 7.3125 10.0625 8.34375 10.0625 8.34375C10.6875 8.15625 11.3438 8.09375 12 8.09375C12.6875 8.09375 13.3438 8.15625 13.9688 8.34375C13.9688 8.34375 15.4688 7.28125 16.125 7.5C16.5625 8.59375 16.2812 9.40625 16.2188 9.625C16.7188 10.1875 17.0312 10.5938 17.0312 11.4688C17.0312 14.4688 15.1875 14.7188 13.4375 14.9062C13.7188 15.1562 13.9688 15.625 13.9688 16.375C13.9688 17.4062 13.9375 18.7188 13.9375 18.9688C13.9375 19.1875 14.0938 19.4375 14.5 19.3438C17.625 18.3125 19.75 15.3438 19.75 11.875C19.75 7.5625 16.2188 4.25 11.875 4.25ZM7.28125 15.0312C7.21875 15.0625 7.25 15.1562 7.28125 15.2188C7.34375 15.25 7.40625 15.2812 7.46875 15.25C7.5 15.2188 7.5 15.125 7.4375 15.0625C7.375 15.0312 7.3125 15 7.28125 15.0312ZM6.9375 14.7812C6.90625 14.8438 6.9375 14.875 7 14.9062C7.0625 14.9375 7.125 14.9375 7.15625 14.875C7.15625 14.8438 7.125 14.8125 7.0625 14.7812C7 14.75 6.96875 14.75 6.9375 14.7812ZM7.9375 15.9062C7.90625 15.9375 7.90625 16.0312 8 16.0938C8.0625 16.1562 8.15625 16.1875 8.1875 16.125C8.21875 16.0938 8.21875 16 8.15625 15.9375C8.09375 15.875 8 15.8438 7.9375 15.9062ZM7.59375 15.4375C7.53125 15.4688 7.53125 15.5625 7.59375 15.625C7.65625 15.6875 7.71875 15.7188 7.78125 15.6875C7.8125 15.6562 7.8125 15.5625 7.78125 15.5C7.71875 15.4375 7.65625 15.4062 7.59375 15.4375Z"/>
</svg>
