<svg xmlns="http://www.w3.org/2000/svg" aria-hidden="true" fill="currentColor" width="750" height="137" viewBox="0 0 750 137">
<path id="katakana-services" d="M72.1307 57.5128L51.3565 58.7912C51.0014 57.0156 50.2379 55.4176 49.0661 53.9972C47.8942 52.5412 46.3494 51.3871 44.4318 50.5348C42.5497 49.647 40.2947 49.2031 37.6669 49.2031C34.1513 49.2031 31.1861 49.9489 28.7713 51.4403C26.3565 52.8963 25.1491 54.8494 25.1491 57.2997C25.1491 59.2528 25.9304 60.9041 27.4929 62.2536C29.0554 63.603 31.7365 64.6861 35.5362 65.5028L50.3445 68.4858C58.299 70.1193 64.2294 72.7472 68.1357 76.3693C72.0419 79.9915 73.995 84.75 73.995 90.6449C73.995 96.0071 72.4148 100.712 69.2543 104.761C66.1293 108.809 61.8324 111.969 56.3636 114.242C50.9304 116.479 44.6626 117.598 37.5604 117.598C26.7294 117.598 18.1001 115.343 11.6726 110.833C5.28054 106.288 1.53409 100.109 0.433239 92.2962L22.7521 91.1243C23.4268 94.4268 25.0604 96.9482 27.6527 98.6882C30.245 100.393 33.5653 101.245 37.6136 101.245C41.5909 101.245 44.7869 100.482 47.2017 98.9545C49.652 97.392 50.8949 95.3857 50.9304 92.9354C50.8949 90.8757 50.0249 89.1889 48.3203 87.875C46.6158 86.5256 43.9879 85.4957 40.4368 84.7855L26.2678 81.9624C18.2777 80.3643 12.3295 77.5945 8.4233 73.6527C4.55256 69.7109 2.61719 64.6861 2.61719 58.5781C2.61719 53.3224 4.03764 48.7947 6.87855 44.995C9.75497 41.1953 13.7855 38.2656 18.9702 36.206C24.1903 34.1463 30.2983 33.1165 37.294 33.1165C47.6278 33.1165 55.7599 35.3004 61.6903 39.6683C67.6563 44.0362 71.1364 49.9844 72.1307 57.5128ZM125.571 117.598C117.155 117.598 109.91 115.893 103.838 112.484C97.801 109.04 93.149 104.175 89.8819 97.8892C86.6149 91.5682 84.9814 84.093 84.9814 75.4638C84.9814 67.0476 86.6149 59.6612 89.8819 53.3047C93.149 46.9482 97.7477 41.9943 103.678 38.4432C109.644 34.892 116.64 33.1165 124.665 33.1165C130.063 33.1165 135.088 33.9865 139.74 35.7266C144.427 37.4311 148.511 40.0057 151.991 43.4503C155.507 46.8949 158.241 51.2273 160.194 56.4474C162.148 61.6321 163.124 67.7045 163.124 74.6648V80.897H94.0368V66.8345H141.764C141.764 63.5675 141.054 60.6733 139.633 58.152C138.213 55.6307 136.242 53.6598 133.721 52.2393C131.235 50.7834 128.341 50.0554 125.038 50.0554C121.594 50.0554 118.54 50.8544 115.876 52.4524C113.248 54.0149 111.189 56.1278 109.697 58.7912C108.206 61.419 107.442 64.3487 107.407 67.5803V80.9503C107.407 84.9986 108.153 88.4964 109.644 91.4439C111.171 94.3913 113.319 96.6641 116.089 98.2621C118.859 99.8601 122.144 100.659 125.944 100.659C128.465 100.659 130.773 100.304 132.868 99.5938C134.964 98.8835 136.757 97.8182 138.248 96.3977C139.74 94.9773 140.876 93.2372 141.657 91.1776L162.645 92.5625C161.579 97.6051 159.395 102.009 156.093 105.773C152.826 109.501 148.6 112.413 143.415 114.509C138.266 116.568 132.318 117.598 125.571 117.598ZM177.932 116V34.1818H199.932V48.4574H200.784C202.275 43.3793 204.779 39.544 208.295 36.9517C211.81 34.3239 215.858 33.0099 220.439 33.0099C221.576 33.0099 222.801 33.081 224.115 33.223C225.429 33.3651 226.583 33.5604 227.577 33.8089V53.9439C226.512 53.6243 225.038 53.3402 223.156 53.0916C221.274 52.843 219.552 52.7188 217.989 52.7188C214.651 52.7188 211.668 53.4467 209.04 54.9027C206.448 56.3232 204.388 58.3118 202.861 60.8686C201.37 63.4254 200.624 66.3729 200.624 69.7109V116H177.932ZM318.078 34.1818L289.474 116H263.905L235.301 34.1818H259.271L276.263 92.7223H277.116L294.055 34.1818H318.078ZM329.69 116V34.1818H352.382V116H329.69ZM341.089 23.6349C337.716 23.6349 334.822 22.5163 332.407 20.2791C330.028 18.0064 328.838 15.2898 328.838 12.1293C328.838 9.00426 330.028 6.32315 332.407 4.08594C334.822 1.81321 337.716 0.676841 341.089 0.676841C344.463 0.676841 347.339 1.81321 349.719 4.08594C352.133 6.32315 353.341 9.00426 353.341 12.1293C353.341 15.2898 352.133 18.0064 349.719 20.2791C347.339 22.5163 344.463 23.6349 341.089 23.6349ZM407.527 117.598C399.146 117.598 391.937 115.822 385.9 112.271C379.899 108.685 375.282 103.713 372.051 97.3565C368.855 91 367.257 83.6847 367.257 75.4105C367.257 67.0298 368.873 59.679 372.104 53.358C375.371 47.0014 380.005 42.0476 386.007 38.4964C392.008 34.9098 399.146 33.1165 407.42 33.1165C414.558 33.1165 420.808 34.4126 426.17 37.005C431.532 39.5973 435.776 43.2372 438.901 47.9247C442.026 52.6122 443.748 58.1165 444.068 64.4375H422.654C422.051 60.3537 420.453 57.0689 417.86 54.5831C415.304 52.0618 411.948 50.8011 407.793 50.8011C404.277 50.8011 401.206 51.7599 398.578 53.6776C395.985 55.5597 393.961 58.3118 392.505 61.9339C391.049 65.5561 390.321 69.9418 390.321 75.0909C390.321 80.3111 391.032 84.75 392.452 88.4077C393.908 92.0653 395.95 94.853 398.578 96.7706C401.206 98.6882 404.277 99.647 407.793 99.647C410.385 99.647 412.711 99.1143 414.771 98.049C416.866 96.9837 418.588 95.4389 419.938 93.4148C421.323 91.3551 422.228 88.8871 422.654 86.0107H444.068C443.713 92.2607 442.008 97.7649 438.954 102.523C435.936 107.246 431.763 110.94 426.436 113.603C421.11 116.266 414.806 117.598 407.527 117.598ZM495.883 117.598C487.467 117.598 480.223 115.893 474.15 112.484C468.113 109.04 463.461 104.175 460.194 97.8892C456.927 91.5682 455.294 84.093 455.294 75.4638C455.294 67.0476 456.927 59.6612 460.194 53.3047C463.461 46.9482 468.06 41.9943 473.991 38.4432C479.956 34.892 486.952 33.1165 494.978 33.1165C500.376 33.1165 505.4 33.9865 510.052 35.7266C514.74 37.4311 518.824 40.0057 522.304 43.4503C525.819 46.8949 528.554 51.2273 530.507 56.4474C532.46 61.6321 533.437 67.7045 533.437 74.6648V80.897H464.349V66.8345H512.077C512.077 63.5675 511.366 60.6733 509.946 58.152C508.525 55.6307 506.555 53.6598 504.033 52.2393C501.547 50.7834 498.653 50.0554 495.351 50.0554C491.906 50.0554 488.852 50.8544 486.189 52.4524C483.561 54.0149 481.501 56.1278 480.01 58.7912C478.518 61.419 477.755 64.3487 477.719 67.5803V80.9503C477.719 84.9986 478.465 88.4964 479.956 91.4439C481.483 94.3913 483.632 96.6641 486.402 98.2621C489.172 99.8601 492.456 100.659 496.256 100.659C498.778 100.659 501.086 100.304 503.181 99.5938C505.276 98.8835 507.069 97.8182 508.561 96.3977C510.052 94.9773 511.189 93.2372 511.97 91.1776L532.957 92.5625C531.892 97.6051 529.708 102.009 526.405 105.773C523.138 109.501 518.912 112.413 513.728 114.509C508.579 116.568 502.631 117.598 495.883 117.598ZM616.32 57.5128L595.546 58.7912C595.191 57.0156 594.427 55.4176 593.256 53.9972C592.084 52.5412 590.539 51.3871 588.621 50.5348C586.739 49.647 584.484 49.2031 581.856 49.2031C578.341 49.2031 575.376 49.9489 572.961 51.4403C570.546 52.8963 569.339 54.8494 569.339 57.2997C569.339 59.2528 570.12 60.9041 571.682 62.2536C573.245 63.603 575.926 64.6861 579.726 65.5028L594.534 68.4858C602.488 70.1193 608.419 72.7472 612.325 76.3693C616.231 79.9915 618.184 84.75 618.184 90.6449C618.184 96.0071 616.604 100.712 613.444 104.761C610.319 108.809 606.022 111.969 600.553 114.242C595.12 116.479 588.852 117.598 581.75 117.598C570.919 117.598 562.29 115.343 555.862 110.833C549.47 106.288 545.724 100.109 544.623 92.2962L566.942 91.1243C567.616 94.4268 569.25 96.9482 571.842 98.6882C574.434 100.393 577.755 101.245 581.803 101.245C585.78 101.245 588.976 100.482 591.391 98.9545C593.841 97.392 595.084 95.3857 595.12 92.9354C595.084 90.8757 594.214 89.1889 592.51 87.875C590.805 86.5256 588.177 85.4957 584.626 84.7855L570.457 81.9624C562.467 80.3643 556.519 77.5945 552.613 73.6527C548.742 69.7109 546.807 64.6861 546.807 58.5781C546.807 53.3224 548.227 48.7947 551.068 44.995C553.944 41.1953 557.975 38.2656 563.16 36.206C568.38 34.1463 574.488 33.1165 581.483 33.1165C591.817 33.1165 599.949 35.3004 605.88 39.6683C611.846 44.0362 615.326 49.9844 616.32 57.5128Z"/>
</svg>
