<svg xmlns="http://www.w3.org/2000/svg" aria-hidden="true" fill="currentColor" width="135" height="765" viewBox="0 0 135 765">
<path id="katakana-profile" d="M0.764204 21.9091C0.764204 17.733 1.48864 14.0114 2.9375 10.7443C4.41477 7.47727 6.58807 4.89205 9.45739 2.98864C12.3551 1.11364 15.9631 0.176136 20.2812 0.176136C23.9176 0.176136 26.9716 0.84375 29.4432 2.17898C31.9148 3.5142 33.9034 5.33239 35.4091 7.63352C36.9148 9.93466 38.0511 12.5483 38.8182 15.4744C39.5852 18.429 40.125 21.5256 40.4375 24.7642C40.8352 28.571 41.2045 31.6392 41.5455 33.9688C41.9148 36.2983 42.4545 37.9886 43.1648 39.0398C43.875 40.0909 44.9261 40.6165 46.3182 40.6165H46.5739C49.2727 40.6165 51.3608 39.7642 52.8381 38.0597C54.3153 36.3835 55.054 33.9972 55.054 30.9006C55.054 27.6335 54.3295 25.0341 52.8807 23.1023C51.4602 21.1705 49.6705 19.892 47.5114 19.267L48.875 2.47727C52.8523 3.32955 56.2898 5.00568 59.1875 7.50568C62.1136 10.0057 64.358 13.2301 65.9205 17.179C67.5114 21.1563 68.3068 25.7585 68.3068 30.9858C68.3068 34.6222 67.8807 38.1023 67.0284 41.4261C66.1761 44.7784 64.8551 47.7472 63.0653 50.3324C61.2756 52.946 58.9744 55.0057 56.1619 56.5114C53.3778 58.017 50.0398 58.7699 46.1477 58.7699H2V41.554H11.0767V41.0426C9.03125 39.9915 7.22727 38.5852 5.66477 36.8239C4.13068 35.0625 2.9233 32.946 2.04261 30.4744C1.19034 28.0028 0.764204 25.1477 0.764204 21.9091ZM13.2926 27.108C13.2926 29.7784 13.8182 32.1364 14.8693 34.1818C15.9489 36.2273 17.3977 37.8324 19.2159 38.9972C21.0341 40.1619 23.0938 40.7443 25.3949 40.7443H32.3409C31.9716 40.1761 31.6307 39.3949 31.3182 38.4006C31.0341 37.4347 30.7642 36.3409 30.5085 35.1193C30.2813 33.8977 30.0682 32.6761 29.8693 31.4545C29.6989 30.233 29.5426 29.125 29.4006 28.1307C29.0881 26 28.5909 24.1392 27.9091 22.5483C27.2273 20.9574 26.304 19.7216 25.1392 18.8409C24.0028 17.9602 22.5824 17.5199 20.8778 17.5199C18.4062 17.5199 16.517 18.4148 15.2102 20.2045C13.9318 22.0227 13.2926 24.3239 13.2926 27.108ZM2 73.1946H89.2727V91.348H56.4602V91.902C58.2216 92.6974 60.0114 93.848 61.8295 95.3537C63.6761 96.8878 65.2102 98.8764 66.4318 101.32C67.6818 103.791 68.3068 106.859 68.3068 110.524C68.3068 115.297 67.0568 119.7 64.5568 123.734C62.0852 127.768 58.3494 130.993 53.3494 133.408C48.3778 135.822 42.142 137.03 34.642 137.03C27.3409 137.03 21.1761 135.851 16.1477 133.493C11.1477 131.163 7.35511 127.982 4.76989 123.947C2.21307 119.942 0.934659 115.453 0.934659 110.482C0.934659 106.959 1.51705 103.962 2.68182 101.49C3.84659 99.0469 5.30966 97.044 7.07102 95.4815C8.8608 93.919 10.6648 92.7259 12.483 91.902V91.0923H2V73.1946ZM34.7273 90.9645C30.8352 90.9645 27.4403 91.5043 24.5426 92.5838C21.6449 93.6634 19.3864 95.2259 17.767 97.2713C16.1761 99.3168 15.3807 101.803 15.3807 104.729C15.3807 107.683 16.1903 110.183 17.8097 112.229C19.4574 114.274 21.7301 115.822 24.6278 116.874C27.554 117.953 30.9205 118.493 34.7273 118.493C38.5057 118.493 41.8295 117.967 44.6989 116.916C47.5682 115.865 49.8125 114.317 51.4318 112.271C53.0511 110.226 53.8608 107.712 53.8608 104.729C53.8608 101.774 53.0795 99.2741 51.517 97.2287C49.9545 95.2116 47.7386 93.6634 44.8693 92.5838C42 91.5043 38.6193 90.9645 34.7273 90.9645ZM0.721591 178.717C0.721591 172.097 2.12784 166.373 4.94034 161.543C7.78125 156.742 11.7301 153.035 16.7869 150.421C21.8722 147.808 27.767 146.501 34.4716 146.501C41.233 146.501 47.142 147.808 52.1989 150.421C57.2841 153.035 61.233 156.742 64.0455 161.543C66.8864 166.373 68.3068 172.097 68.3068 178.717C68.3068 185.336 66.8864 191.046 64.0455 195.847C61.233 200.677 57.2841 204.398 52.1989 207.012C47.142 209.626 41.233 210.933 34.4716 210.933C27.767 210.933 21.8722 209.626 16.7869 207.012C11.7301 204.398 7.78125 200.677 4.94034 195.847C2.12784 191.046 0.721591 185.336 0.721591 178.717ZM14.7841 178.802C14.7841 181.813 15.6364 184.327 17.3409 186.344C19.0739 188.362 21.4318 189.881 24.4148 190.904C27.3977 191.955 30.7926 192.481 34.5994 192.481C38.4063 192.481 41.8011 191.955 44.7841 190.904C47.767 189.881 50.125 188.362 51.858 186.344C53.5909 184.327 54.4574 181.813 54.4574 178.802C54.4574 175.762 53.5909 173.205 51.858 171.131C50.125 169.086 47.767 167.538 44.7841 166.487C41.8011 165.464 38.4063 164.952 34.5994 164.952C30.7926 164.952 27.3977 165.464 24.4148 166.487C21.4318 167.538 19.0739 169.086 17.3409 171.131C15.6364 173.205 14.7841 175.762 14.7841 178.802ZM29.8693 264.711H67.4545V282.864H2V265.435H13.8892V264.754C10.054 263.276 6.97159 260.819 4.64205 257.381C2.3125 253.972 1.14773 249.81 1.14773 244.896C1.14773 240.521 2.14205 236.671 4.13068 233.347C6.11932 230.023 8.94602 227.424 12.6108 225.549C16.2756 223.702 20.6648 222.765 25.7784 222.737H67.4545V240.89H29.017C25.1534 240.918 22.0994 241.955 19.8551 244.001C17.6108 246.046 16.4886 248.788 16.4886 252.225C16.4886 254.413 16.9858 256.458 17.9801 258.362C19.0028 260.265 20.5085 261.799 22.4972 262.964C24.4858 264.157 26.9432 264.739 29.8693 264.711ZM67.4545 332.2H53.8182V292.783H67.4545L67.4545 332.2ZM83.1364 301.732L83.1364 319.885H22.1136C20.4375 319.885 19.1307 320.141 18.1932 320.652C17.2841 321.163 16.6449 321.874 16.2756 322.783C15.9063 323.72 15.7216 324.8 15.7216 326.021C15.7216 326.874 15.7926 327.726 15.9347 328.578C16.1051 329.43 16.233 330.084 16.3182 330.538L2.80966 333.393C2.52557 332.484 2.19886 331.206 1.82955 329.558C1.43182 327.911 1.19034 325.908 1.10511 323.55C0.934659 319.175 1.51705 315.339 2.85227 312.044C4.1875 308.777 6.26136 306.234 9.07386 304.416C11.8864 302.598 15.4375 301.703 19.7273 301.732H83.1364ZM2 371.799H67.4545V389.1H55.9063V389.867C59.7415 391.231 62.767 393.504 64.983 396.685C67.1989 399.867 68.3068 403.674 68.3068 408.106C68.3068 412.594 67.1847 416.415 64.9403 419.569C62.7244 422.722 59.7131 424.825 55.9063 425.876V426.558C59.6563 427.893 62.6534 430.308 64.8977 433.802C67.1705 437.325 68.3068 441.487 68.3068 446.288C68.3068 452.396 66.3608 457.353 62.4688 461.16C58.6051 464.995 53.1222 466.913 46.0199 466.913H2V448.802H42.4403C46.0767 448.802 48.804 447.836 50.6222 445.904C52.4403 443.972 53.3494 441.558 53.3494 438.66C53.3494 435.364 52.2983 432.793 50.196 430.947C48.1222 429.1 45.3807 428.177 41.9716 428.177H2V410.577H42.8239C46.0341 410.577 48.5909 409.654 50.4943 407.808C52.3977 405.989 53.3494 403.589 53.3494 400.606C53.3494 398.589 52.8381 396.771 51.8153 395.151C50.821 393.56 49.4148 392.296 47.5966 391.359C45.8068 390.421 43.7045 389.952 41.2898 389.952H2L2 371.799ZM0.721591 511.082C0.721591 504.349 2.08523 498.553 4.8125 493.695C7.56818 488.866 11.4602 485.144 16.4886 482.531C21.5455 479.917 27.5256 478.61 34.429 478.61C41.1619 478.61 47.071 479.917 52.1563 482.531C57.2415 485.144 61.2045 488.823 64.0455 493.567C66.8864 498.34 68.3068 503.937 68.3068 510.357C68.3068 514.675 67.6108 518.695 66.2188 522.417C64.8551 526.167 62.7955 529.434 60.0398 532.218C57.2841 535.031 53.8182 537.218 49.642 538.781C45.4943 540.343 40.6364 541.124 35.0682 541.124H30.0824V485.854H41.3324V524.036C43.946 524.036 46.2614 523.468 48.2784 522.332C50.2955 521.195 51.8722 519.619 53.0085 517.602C54.1733 515.613 54.7557 513.298 54.7557 510.656C54.7557 507.9 54.1165 505.457 52.8381 503.326C51.5881 501.224 49.8977 499.576 47.767 498.383C45.6648 497.19 43.321 496.579 40.7358 496.55H30.0398C26.8011 496.55 24.0028 497.147 21.6449 498.34C19.2869 499.562 17.4688 501.281 16.1903 503.496C14.9119 505.712 14.2727 508.34 14.2727 511.38C14.2727 513.397 14.5568 515.244 15.125 516.92C15.6932 518.596 16.5455 520.031 17.6818 521.224C18.8182 522.417 20.2102 523.326 21.858 523.951L20.75 540.741C16.7159 539.888 13.1932 538.141 10.1818 535.499C7.19886 532.886 4.86932 529.505 3.19318 525.357C1.54545 521.238 0.721591 516.479 0.721591 511.082Z"/>
</svg>

